<?xml version="1.0" encoding="utf-8"?>
<!-- Generator: Adobe Illustrator 16.0.4, SVG Export Plug-In . SVG Version: 6.00 Build 0)  -->
<!DOCTYPE svg PUBLIC "-//W3C//DTD SVG 1.1//EN" "http://www.w3.org/Graphics/SVG/1.1/DTD/svg11.dtd">
<svg version="1.1" id="Logo" xmlns="http://www.w3.org/2000/svg" xmlns:xlink="http://www.w3.org/1999/xlink" x="0px" y="0px"
	 width="204px" height="112.667px" viewBox="0 0 204 112.667" enable-background="new 0 0 204 112.667" xml:space="preserve">
<polygon id="border" fill="#57BAA3" points="1.5,1.295 1.5,104.795 126.5,104.795 126.5,97.795 8.5,97.795 8.5,8.295 195.5,8.295 
	195.5,97.795 170,97.795 170,104.795 202.5,104.795 202.5,1.295 "/>
<g id="Quiz">
	<path fill="#57BAA3" d="M141.418,41.478c1.301-1.4,2-4.101,0.701-6.7c-1.301-2.7-4.201-3.9-5.801-2.2s-2.1,4.7-0.5,7.4
		C137.318,42.578,140.119,42.878,141.418,41.478z"/>
	<path fill="#57BAA3" d="M177.889,65.479c-0.4-0.9-1.4-0.801-1.801,0c-3.199,6.099-7.4,10.499-12,12.899c-0.4-1.9-1.199-3.6-2.6-4.9
		c-1.602-1.5-3.9-2.1-6.301-2c6.5-4.1,12.201-9,14.801-13.4c3.1-5.3,2.801-9.9,0.4-13.301c-2.5-3.6-5.4-4.2-9.9-3.6
		c-4.801,0.6-10.502,3.4-14.502,7.3c-3.699,3.601-4.9,8.201-4.1,10.801c0.199,0.801,0.9,1.101,1.5,0.301
		c7.701-9.601,21.301-16.701,24.002-13.301c2.699,3.399-3.701,13.2-18.701,21.799c-3.5,2-5.801,5.102-4.301,9.4
		c0.301,0.801,1,0.602,1.699,0.102c5.002-3.502,11.102-4.102,12.502-2.301c0.9,1.199,1,3,0.6,5.1c-8.5,3.5-16.801,8.4-20.502,17.002
		c-2.4,5.6,0.201,9.1,2.301,11.701c2.5,3.1,4.6,2.5,6.6,1.398c6.301-3.5,16.701-18.6,16.701-29.301
		c4.201-1.801,9.9-5.201,12.201-9.5C177.889,69.078,178.289,66.279,177.889,65.479z M142.686,105.682
		c-1.898-2.301,2.301-14.502,15.602-22.002C154.887,93.779,144.486,107.781,142.686,105.682z"/>
	<path fill="#57BAA3" d="M71.651,59.979c7.3-13.801,10.2-33.302-1.9-38.702c-2.9-3-7.801-4.101-13.801-2
		c-11.001,3.8-29.502,22.001-29.602,43.303c0,6.499,2.1,12.5,7,16.2c-0.2,0-0.5,0-0.7,0c-5.2-0.199-9,1.4-10.8,3.801
		c-0.501,0.699-0.101,1.299,0.899,1.1c13.001-3,19.401,6.301,30.102,9.9c4.9,1.701,11.602,1.5,14.901-2.801
		c0.6-0.699,0.7-1.5-1-1.199c-6.9,1.4-13.901-3.5-21.501-7.301C55.75,81.779,65.25,71.979,71.651,59.979z M37.849,77.479
		c-6.701-3-6.501-19.799,3-34.5c9.4-14.601,21.901-21.501,26.802-19.501c5.5,2.2,5.7,17.101-3.301,33.702
		C56.15,72.379,44.449,80.479,37.849,77.479z"/>
	<path fill="#57BAA3" d="M141.418,65.579c-0.398-0.8-1.1-0.9-1.6,0c-3,6.899-8.5,13.501-13,13.7c-3.201,0.199-3.4-3.699-1-9.5
		c2.1-5,6.299-11.8,8.4-16.201c2.4-5,1.6-9.301,0.1-10.9c-0.801-0.9-1.5-0.601-2.4,0.6c-3.299,4.636-8.895,14.51-11.844,21.772
		c-0.451-0.383-1.09-0.181-1.484,0.529c-3.898,6.999-9,13.601-13.199,13.8c-3.602,0.201-4.002-4-1.4-9.699
		c2.299-5.101,7.301-12.601,9.5-17.101c2.4-5,1.6-9.4,0.1-11.2c-0.799-1-1.5-0.801-2.5,0.6c-3.199,4.301-6.1,11.201-12.401,21.401
		c-5.4,8.699-10.9,15.701-14.801,15.4c-2.3-0.199-2.601-3.801-0.5-8.701c2.1-4.799,4.101-8.799,7.801-14.7
		c3.6-5.7,4.1-10.2,1.899-13.5c-0.8-0.9-1.8-1-2.6,0.1c-6.501,9.101-11.601,18.901-13.801,25.5c-2.2,6.6-2,14.002,5.1,14.502
		c5.601,0.398,10.901-4.701,14.401-9.402c-0.8,5.801,1.8,9.902,8.301,9.902c4.982,0,10.17-3.641,13.412-8.145
		c0.074,4.697,2.592,7.844,7.916,7.844c5.6,0,11.9-4.201,14.9-10.4C141.918,69.279,142.219,67.178,141.418,65.579z"/>
</g>
<g>
</g>
<g>
</g>
<g>
</g>
<g>
</g>
<g>
</g>
<g>
</g>
</svg>
